<svg xmlns="http://www.w3.org/2000/svg" width="211" height="37" fill="none" viewBox="0 0 211 37">
<!-- SVG created with Arrow, by QuiverAI (https://quiver.ai) -->
  <style>
    @keyframes dart {
      0%, 100% { transform: translate(0, 0); }
      50% { transform: translate(3px, -3px); }
    }
    .animated-arrow {
      animation: dart 3s ease-in-out infinite;
    }
  </style>
  <path d="m2.08 4.8c-0.53 0.58-0.54 1.95-0.05 2.76 0.66 1.1 2.58 1 3.25 0.75 1.3-0.49 1.61-1.65 1.33-2.75-0.45-1.79-3.3-1.86-4.53-0.76z" fill="#FFF"/>
  <path d="m2.08 11.46v16.61h3.93v-16.61h-3.93z" fill="#FFF"/>
  <path d="m10.19 11.46 0.02 16.61h4.5l0.06-9.02c0-2.59 1.45-3.88 3.62-3.77 2.25 0.11 3.09 1.11 3.09 4.27v8.52h5.12v-9.02c0-5.29-1.5-8.33-6.38-8.33-3.17 0-4.16 1.67-4.76 2.89l-0.48-2.15h-4.79z" fill="#FFF"/>
  <path d="m67.29 0h-7.22l-30.59 13.41 16.03 3.99-17.99 18.91 42.49-19.09-15.88-4.02 13.16-13.2z" fill="url(#paint0_linear_1_2)" class="animated-arrow"/>
  <path d="m68.37 11.46v3.75h2.8v7.66c0 3.8 1.71 5.45 5.35 5.45h3.26v-3.87h-2.28c-1.32 0-1.76-0.38-1.76-2.06v-7.18h4.04v-3.75h-4.04v-4.63h-4l-0.47 4.63h-2.9z" fill="#FFF"/>
  <path d="m83.75 16.81c0.31-3.49 2.24-6.3 7.4-6.3 5.66 0 7.57 2.24 7.57 5.7v12.11h-3.59l-0.38-2.13c-0.8 1.72-1.96 2.54-4.93 2.54-3.6 0-5.88-1.56-5.88-4.82 0-3.13 2.25-4.63 6.24-4.63h4.19v-1.62c0-1.65-0.64-2.47-2.95-2.47-1.91 0-2.81 0.72-3.03 1.62h-4.64zm10.62 4.45h-3.77c-1.68 0-2.4 0.62-2.4 1.75 0 1.2 0.97 1.77 2.71 1.77 2.25 0 3.38-1.37 3.46-3.52z" fill="#FFF"/>
  <path d="m102.8 11.15h3.95l0.5 2.38c0.72-1.82 2.1-2.87 5.1-2.87 5.12 0 6.41 3.09 6.41 7.72v9.55h-4.8v-9.02c0-2.63-0.71-4.1-3.04-4.1-2.22 0-3.57 1.47-3.57 4.1v9.02h-4.55v-16.78z" fill="#FFF"/>
  <path d="m121.4 11.46h2.8l0.47-4.34h4.41v4.34h4.57v3.47h-4.57v6.85c0 1.88 0.38 2.29 1.7 2.29h2.98v4h-3.65c-3.64 0-5.6-1.26-5.6-5.61v-7.53h-3.11v-3.47z" fill="#FFF"/>
  <path d="m136.8 11.33h4.04l0.5 2.28c0.8-1.59 2.18-2.89 4.98-2.89 5.12 0 8.38 3.71 8.38 8.69 0 4.8-3.57 8.91-7.98 8.91-2.5 0-4.15-1.23-5.38-3.11v10.1h-4.54v-23.98zm9.22 3.74c-3.08 0-4.68 2.12-4.68 4.99 0 2.55 1.53 4.17 3.99 4.17 2.93 0 4.35-1.94 4.35-4.71 0-2.59-1.29-4.45-3.66-4.45z" fill="#FFF"/>
  <path d="m158.3 11.33h4.41l0.31 2.59c0.9-1.75 2.43-3.2 5.78-3.2v5.36h-1.68c-3.26 0-4.25 1.16-4.25 4.63v7.36h-4.57v-16.74z" fill="#FFF"/>
  <path d="m179.7 10.72c5.69 0 8.69 3.99 8.69 8.69 0 4.91-3.35 9.12-8.58 9.12-5.69 0-8.25-4-8.25-8.83 0-4.77 3.09-8.98 8.14-8.98zm0.11 4.35c-2.8 0-3.62 1.84-3.62 4.66 0 3.03 0.99 4.59 3.51 4.59 2.69 0 3.76-1.91 3.76-4.8 0-2.86-1.13-4.45-3.65-4.45z" fill="#FFF"/>
  <path d="m205 4.22h4.47v24.1h-3.9l-0.5-2.46c-0.99 1.65-2.4 2.87-5.09 2.87-5.12 0-7.71-4.11-7.71-8.91s2.66-9.1 7.71-9.1c2.47 0 4.07 0.99 5.02 2.4v-8.9zm-3.72 10.85c-2.8 0-3.99 1.94-3.99 4.7 0 2.86 1.29 4.65 3.85 4.65 2.69 0 4.03-1.91 4.03-4.72 0-2.86-1.43-4.63-3.89-4.63z" fill="#FFF"/>
  <defs>
    <linearGradient id="paint0_linear_1_2" x1="46.4" x2="54.07" y1="2.816" y2="23.72" gradientUnits="userSpaceOnUse">
      <stop stop-color="#B5515A" offset="0"/>
      <stop stop-color="#E86573" offset=".5104"/>
      <stop stop-color="#EA6571" offset="1"/>
    </linearGradient>
  </defs>
</svg>
